HIERARCHY
ROOT hip
{
  OFFSET 0 0 0
  CHANNELS 6 Xposition Yposition Zposition Zrotation Yrotation Xrotation
  JOINT abdomen
  {
    OFFSET 0 20.6881 -0.73152
    CHANNELS 3 Zrotation Xrotation Yrotation
    JOINT chest
    {
      OFFSET 0 11.7043 -0.48768
      CHANNELS 3 Zrotation Xrotation Yrotation
      JOINT neck
      {
        OFFSET 0 22.1894 -2.19456
        CHANNELS 3 Zrotation Xrotation Yrotation
        JOINT head
        {
          OFFSET -0.24384 7.07133 1.2192
          CHANNELS 3 Zrotation Xrotation Yrotation
          JOINT leftEye
          {
            OFFSET 4.14528 8.04674 8.04672
            CHANNELS 3 Zrotation Xrotation Yrotation
            End Site
            {
              OFFSET 1 0 0
            }
          }
          JOINT rightEye
          {
            OFFSET -3.6576 8.04674 8.04672
            CHANNELS 3 Zrotation Xrotation Yrotation
            End Site
            {
              OFFSET 1 0 0
            }
          }
        }
      }
      JOINT rCollar
      {
        OFFSET -2.68224 19.2634 -4.8768
        CHANNELS 3 Zrotation Xrotation Yrotation
        JOINT rShldr
        {
          OFFSET -8.77824 -1.95073 1.46304
          CHANNELS 3 Zrotation Xrotation Yrotation
          JOINT rForeArm
          {
            OFFSET -28.1742 -1.7115 0.48768
            CHANNELS 3 Zrotation Xrotation Yrotation
            JOINT rHand
            {
              OFFSET -22.5879 0.773209 7.07136
              CHANNELS 3 Zrotation Xrotation Yrotation
              JOINT rThumb1
              {
                OFFSET -1.2192 -0.487915 3.41376
                CHANNELS 3 Zrotation Xrotation Yrotation
                JOINT rThumb2
                {
                  OFFSET -3.37035 -0.52449 3.41376
                  CHANNELS 3 Zrotation Xrotation Yrotation
                  End Site
                  {
                    OFFSET -1.78271 -1.18214 1.43049
                  }
                }
              }
              JOINT rIndex1
              {
                OFFSET -7.75947 0.938293 5.60832
                CHANNELS 3 Zrotation Xrotation Yrotation
                JOINT rIndex2
                {
                  OFFSET -2.54057 -0.884171 1.56538
                  CHANNELS 3 Zrotation Xrotation Yrotation
                  End Site
                  {
                    OFFSET -1.62519 -0.234802 1.16502
                  }
                }
              }
              JOINT rMid1
              {
                OFFSET -8.24714 1.18213 3.41376
                CHANNELS 3 Zrotation Xrotation Yrotation
                JOINT rMid2
                {
                  OFFSET -3.10165 -0.590103 1.0647
                  CHANNELS 3 Zrotation Xrotation Yrotation
                  End Site
                  {
                    OFFSET -2.48547 -0.328903 0.83742
                  }
                }
              }
              JOINT rRing1
              {
                OFFSET -8.82822 0.546677 1.51678
                CHANNELS 3 Zrotation Xrotation Yrotation
                JOINT rRing2
                {
                  OFFSET -2.60934 -0.819778 -0.0198488
                  CHANNELS 3 Zrotation Xrotation Yrotation
                  End Site
                  {
                    OFFSET -2.33842 -0.294052 0.168128
                  }
                }
              }
              JOINT rPinky1
              {
                OFFSET -8.27202 -0.0477905 -0.4584
                CHANNELS 3 Zrotation Xrotation Yrotation
                JOINT rPinky2
                {
                  OFFSET -1.82734 -0.647385 -0.700984
                  CHANNELS 3 Zrotation Xrotation Yrotation
                  End Site
                  {
                    OFFSET -1.69225 -0.51767 -0.607171
                  }
                }
              }
            }
          }
        }
      }
      JOINT lCollar
      {
        OFFSET 2.68224 19.2634 -4.8768
        CHANNELS 3 Zrotation Xrotation Yrotation
        JOINT lShldr
        {
          OFFSET 8.77824 -1.95073 1.46304
          CHANNELS 3 Zrotation Xrotation Yrotation
          JOINT lForeArm
          {
            OFFSET 28.1742 -1.7115 0.48768
            CHANNELS 3 Zrotation Xrotation Yrotation
            JOINT lHand
            {
              OFFSET 22.5879 0.773209 7.07136
              CHANNELS 3 Zrotation Xrotation Yrotation
              JOINT lThumb1
              {
                OFFSET 1.2192 -0.487915 3.41376
                CHANNELS 3 Zrotation Xrotation Yrotation
                JOINT lThumb2
                {
                  OFFSET 3.37035 -0.52449 3.41376
                  CHANNELS 3 Zrotation Xrotation Yrotation
                  End Site
                  {
                    OFFSET 1.78271 -1.18214 1.43049
                  }
                }
              }
              JOINT lIndex1
              {
                OFFSET 7.75947 0.938293 5.60832
                CHANNELS 3 Zrotation Xrotation Yrotation
                JOINT lIndex2
                {
                  OFFSET 2.54057 -0.884171 1.56538
                  CHANNELS 3 Zrotation Xrotation Yrotation
                  End Site
                  {
                    OFFSET 1.62519 -0.234802 1.16502
                  }
                }
              }
              JOINT lMid1
              {
                OFFSET 8.24714 1.18213 3.41376
                CHANNELS 3 Zrotation Xrotation Yrotation
                JOINT lMid2
                {
                  OFFSET 3.10165 -0.590103 1.0647
                  CHANNELS 3 Zrotation Xrotation Yrotation
                  End Site
                  {
                    OFFSET 2.48547 -0.328903 0.83742
                  }
                }
              }
              JOINT lRing1
              {
                OFFSET 8.82822 0.546677 1.51678
                CHANNELS 3 Zrotation Xrotation Yrotation
                JOINT lRing2
                {
                  OFFSET 2.60934 -0.819778 -0.0198488
                  CHANNELS 3 Zrotation Xrotation Yrotation
                  End Site
                  {
                    OFFSET 2.33842 -0.294052 0.168128
                  }
                }
              }
              JOINT lPinky1
              {
                OFFSET 8.27202 -0.0477905 -0.4584
                CHANNELS 3 Zrotation Xrotation Yrotation
                JOINT lPinky2
                {
                  OFFSET 1.82734 -0.647385 -0.700984
                  CHANNELS 3 Zrotation Xrotation Yrotation
                  End Site
                  {
                    OFFSET 1.69225 -0.51767 -0.607171
                  }
                }
              }
            }
          }
        }
      }
    }
  }
  JOINT rButtock
  {
    OFFSET -8.77824 4.35084 1.2192
    CHANNELS 3 Zrotation Xrotation Yrotation
    JOINT rThigh
    {
      OFFSET 0 -1.70687 -2.19456
      CHANNELS 3 Zrotation Xrotation Yrotation
      JOINT rShin
      {
        OFFSET 0 -36.8199 0.73152
        CHANNELS 3 Zrotation Xrotation Yrotation
        JOINT rFoot
        {
          OFFSET 0.73152 -45.1104 -5.12064
          CHANNELS 3 Zrotation Xrotation Yrotation
          End Site
          {
            OFFSET -1.1221 -3.69964 12.103
          }
        }
      }
    }
  }
  JOINT lButtock
  {
    OFFSET 8.77824 4.35084 1.2192
    CHANNELS 3 Zrotation Xrotation Yrotation
    JOINT lThigh
    {
      OFFSET 0 -1.70687 -2.19456
      CHANNELS 3 Zrotation Xrotation Yrotation
      JOINT lShin
      {
        OFFSET 0 -36.8199 0.73152
        CHANNELS 3 Zrotation Xrotation Yrotation
        JOINT lFoot
        {
          OFFSET -0.73152 -45.1104 -5.12064
          CHANNELS 3 Zrotation Xrotation Yrotation
          End Site
          {
            OFFSET 1.1221 -3.69964 12.103
          }
        }
      }
    }
  }
}
MOTION
Frames:	4
Frame Time:	0.00833333
-1.37265 82.3168 -21.1011 -180.908 -36.6385 -173.462 -9.16979 -9.48533 -0.671978 1.25615 10.0661 -0.402394 -5.25628 15.1013 -0.797032 11.9493 -24.1326 0.811382 -0.0 0.0 0.0 -0.0 0.0 0.0 1.52059e-13 -1.82484e-13 -4.32198e-13 83.4001 1.24814 -1.87007 -11.384 -5.02531 20.425 -1.87946 35.7854 5.8149 8.15958e-10 4.10949e-10 -6.85445e-10 1.3838e-09 7.10572e-10 -1.20788e-09 8.15961e-10 4.10947e-10 -6.8545e-10 7.73091 5.47488 0.417314 8.15958e-10 4.10948e-10 -6.8545e-10 2.90554 0.965183 0.102902 8.15966e-10 4.10948e-10 -6.85446e-10 10.2786 0.731801 0.0259123 8.15954e-10 4.1095e-10 -6.85445e-10 2.22167 -0.733487 -0.20892 1.51906e-13 -1.82486e-13 -4.3245e-13 -82.8849 -6.70232 1.26384 7.02739 -2.52194 -12.3328 3.0645 43.5398 -7.67185 -8.36905e-10 -5.90309e-10 -4.56053e-10 -1.45642e-09 -1.12082e-09 -7.56327e-10 -8.36906e-10 -5.90307e-10 -4.56043e-10 -7.73091 5.47488 -0.417314 -8.36903e-10 -5.90309e-10 -4.56056e-10 -2.90554 0.965183 -0.102902 -8.36908e-10 -5.90309e-10 -4.56052e-10 -10.2786 0.731801 -0.0259123 -8.369e-10 -5.90306e-10 -4.56059e-10 -2.22167 -0.733487 0.20892 -2.03217e-16 0.0 -3.88251e-19 -4.09023 -8.33664 -4.12971 -0.549687 43.3043 0.119956 0.908224 -0.538896 7.82458 2.03217e-16 0.0 3.88251e-19 -3.40777 -36.2435 5.90774 0.0721574 29.581 0.707844 1.76353 7.10373 -12.52
-2.3356 82.3942 -21.9145 -180.295 -36.7463 -173.839 -9.01688 -9.18048 -0.765444 0.921895 9.85701 -0.430419 -5.13064 15.1621 -0.850629 11.8449 -24.3481 0.702803 -0.0 0.0 0.0 -0.0 0.0 0.0 8.16884e-14 -3.06035e-13 4.46205e-13 83.2382 1.42597 -2.47455 -11.5153 -5.1143 20.6761 -1.8179 35.2945 5.70978 -3.10904e-09 2.31403e-09 -1.84408e-09 -5.40805e-09 3.95424e-09 -3.09681e-09 -3.10904e-09 2.31402e-09 -1.84408e-09 7.73091 5.47488 0.417314 -3.10904e-09 2.31402e-09 -1.84408e-09 2.90554 0.965183 0.102902 -3.10903e-09 2.31402e-09 -1.84407e-09 10.2786 0.731801 0.0259123 -3.10905e-09 2.31403e-09 -1.84407e-09 2.22167 -0.733487 -0.20892 8.14827e-14 -3.06036e-13 4.45953e-13 -82.7297 -4.81972 1.12155 7.17896 -2.59594 -12.607 2.8262 42.2087 -7.32106 -2.11988e-09 -9.87503e-11 -2.10679e-09 -3.71133e-09 -9.67994e-11 -3.56297e-09 -2.11988e-09 -9.87498e-11 -2.10678e-09 -7.73091 5.47488 -0.417314 -2.11988e-09 -9.87512e-11 -2.1068e-09 -2.90554 0.965183 -0.102902 -2.11988e-09 -9.87509e-11 -2.10679e-09 -10.2786 0.731801 -0.0259123 -2.11987e-09 -9.87487e-11 -2.1068e-09 -2.22167 -0.733487 0.20892 -2.03217e-16 0.0 -3.88251e-19 -5.21518 -11.2584 -5.51652 -0.698569 48.5587 0.319492 0.270447 4.19031 6.90326 2.03217e-16 0.0 3.88251e-19 -3.35161 -35.389 7.03528 0.0694826 29.9488 0.725073 1.81083 6.49737 -13.8025
-3.39927 82.5047 -22.7174 -180.751 -36.7683 -173.724 -9.0931 -8.82113 -0.893224 0.734769 9.69467 -0.474338 -5.03745 15.2055 -0.892653 11.7758 -24.5866 0.630544 -0.0 0.0 0.0 -0.0 0.0 0.0 1.72348e-14 -3.39525e-13 9.82941e-13 83.0629 1.67916 -2.91071 -11.637 -5.19734 20.9095 -1.76926 34.8946 5.62534 -5.6202e-09 3.38076e-09 -2.4699e-09 -9.75025e-09 5.76871e-09 -4.10613e-09 -5.6202e-09 3.38076e-09 -2.4699e-09 7.73091 5.47488 0.417314 -5.6202e-09 3.38076e-09 -2.4699e-09 2.90554 0.965183 0.102902 -5.62019e-09 3.38076e-09 -2.4699e-09 10.2786 0.731801 0.0259123 -5.62021e-09 3.38076e-09 -2.4699e-09 2.22167 -0.733487 -0.20892 1.7007e-14 -3.39525e-13 9.82692e-13 -82.5917 -3.2453 0.82306 7.29104 -2.65083 -12.8105 2.66137 41.2126 -7.07039 -3.02239e-09 1.97205e-10 -3.01295e-09 -5.28989e-09 5.29985e-10 -5.09808e-09 -3.0224e-09 1.97205e-10 -3.01295e-09 -7.73091 5.47488 -0.417314 -3.02239e-09 1.97204e-10 -3.01296e-09 -2.90554 0.965183 -0.102902 -3.0224e-09 1.97204e-10 -3.01295e-09 -10.2786 0.731801 -0.0259123 -3.02239e-09 1.97206e-10 -3.01296e-09 -2.22167 -0.733487 0.20892 -2.03217e-16 0.0 -3.88251e-19 -6.40529 -14.0228 -6.69941 -0.877747 53.2331 0.53614 -0.0782528 7.4488 5.82224 2.03217e-16 0.0 3.88251e-19 -3.50371 -34.4374 7.88368 0.0629514 30.2222 0.724155 1.81321 5.86858 -14.8421
-4.36552 82.575 -23.5546 -180.946 -36.5767 -173.756 -9.56099 -8.35238 -1.0591 0.770618 9.59594 -0.540862 -4.95319 15.2462 -0.908231 11.6825 -24.9299 0.622076 -0.0 0.0 0.0 -0.0 0.0 0.0 -4.88849e-14 -2.25502e-13 1.04462e-12 82.8468 2.14144 -3.10598 -11.7474 -5.27333 21.1215 -1.73707 34.6246 5.56886 -6.25159e-09 3.26209e-09 -2.34353e-09 -1.08344e-08 5.55542e-09 -3.87054e-09 -6.25158e-09 3.26208e-09 -2.34352e-09 7.73091 5.47488 0.417314 -6.25159e-09 3.26209e-09 -2.34352e-09 2.90554 0.965183 0.102902 -6.25158e-09 3.26209e-09 -2.34353e-09 10.2786 0.731801 0.0259123 -6.25159e-09 3.26209e-09 -2.34352e-09 2.22167 -0.733487 -0.20892 -4.90846e-14 -2.25499e-13 1.04438e-12 -82.4748 -2.13778 0.333397 7.34493 -2.67732 -12.9084 2.58202 40.7137 -6.9478 -3.54398e-09 1.69454e-10 -2.86825e-09 -6.1822e-09 5.17449e-10 -4.83416e-09 -3.54398e-09 1.69452e-10 -2.86824e-09 -7.73091 5.47488 -0.417314 -3.54398e-09 1.69452e-10 -2.86825e-09 -2.90554 0.965183 -0.102902 -3.54398e-09 1.69452e-10 -2.86825e-09 -10.2786 0.731801 -0.0259123 -3.54397e-09 1.69454e-10 -2.86826e-09 -2.22167 -0.733487 0.20892 -2.03217e-16 0.0 -3.88251e-19 -7.67818 -16.6135 -7.62825 -1.08619 57.3854 0.769672 -0.156284 8.80003 4.27315 2.03217e-16 0.0 3.88251e-19 -3.96107 -33.3173 8.40601 0.0519224 30.3357 0.70477 1.77512 5.21219 -15.5515
